<?xml version="1.0" encoding="UTF-8"?>
<!DOCTYPE svg PUBLIC "-//W3C//DTD SVG 1.1//EN" "http://www.w3.org/Graphics/SVG/1.1/DTD/svg11.dtd">
<!-- Creator: CorelDRAW X8 -->
<svg xmlns="http://www.w3.org/2000/svg" xml:space="preserve" width="200mm" height="65.928mm" version="1.1" style="shape-rendering:geometricPrecision; text-rendering:geometricPrecision; image-rendering:optimizeQuality; fill-rule:evenodd; clip-rule:evenodd"
viewBox="0 0 20000 6593"
 xmlns:xlink="http://www.w3.org/1999/xlink">
 <defs>
  <style type="text/css">
   <![CDATA[
    .fil1 {fill:#00AEEF}
    .fil0 {fill:#145CA5}
   ]]>
  </style>
 </defs>
 <g id="Layer_x0020_1">
  <metadata id="CorelCorpID_0Corel-Layer"/>
  <g id="Epoka.eps">
   <path class="fil0" d="M0 467c764,-314 1593,-451 2417,-466 536,-8 1075,38 1601,147 352,74 700,176 1032,319 0,1031 0,2061 0,3093 -580,-149 -1159,-302 -1751,-397 11,-5 22,-10 33,-15 475,-191 951,-382 1427,-573 -561,135 -1121,272 -1681,407 443,-455 887,-909 1330,-1365 -501,391 -997,787 -1496,1179 263,-693 527,-1384 789,-2078 -108,203 -210,408 -316,612 -233,455 -467,910 -700,1365 -42,-869 -84,-1738 -124,-2606 -45,868 -84,1737 -126,2607 -338,-659 -675,-1319 -1016,-1977 261,693 527,1385 788,2078 -518,-410 -1036,-821 -1556,-1230 463,472 927,943 1389,1415 -588,-150 -1175,-304 -1764,-451 501,203 999,408 1500,611 -604,82 -1193,246 -1776,418l0 -3093zm12299 -23c293,-34 599,-10 873,107 307,130 551,386 697,682 183,370 222,794 203,1201 -18,381 -98,771 -316,1090 -113,167 -263,307 -437,409 -181,108 -390,165 -599,183 -240,18 -486,0 -716,-74 -239,-75 -455,-222 -608,-422 -230,-291 -359,-653 -399,-1020 -37,-363 -16,-736 94,-1085 95,-296 256,-579 501,-776 200,-164 451,-263 707,-295l0 0zm95 554c-127,20 -249,79 -336,175 -97,107 -151,246 -191,384 -75,278 -85,569 -79,856 5,191 20,382 63,569 32,131 78,264 162,372 66,86 162,145 264,178 109,35 224,43 338,33 125,-11 250,-58 343,-145 94,-90 153,-211 192,-334 69,-224 87,-460 94,-693 4,-253 -2,-506 -45,-755 -23,-117 -48,-238 -112,-340 -67,-109 -165,-199 -282,-252 -127,-58 -273,-69 -411,-48l0 0zm4581 2731c356,-1088 711,-2175 1067,-3263 260,0 520,0 780,0 377,1200 753,2399 1130,3599 -258,0 -516,0 -775,0 -85,-284 -168,-568 -253,-852 -351,1 -701,0 -1052,0 -84,284 -169,568 -253,852 -275,-3 -551,7 -826,0 -182,0 -364,1 -547,0 -361,-625 -725,-1249 -1087,-1872 1,623 -1,1247 1,1872 -247,2 -493,0 -738,0 -2,-1196 -1,-2393 -1,-3589 246,0 492,0 738,0 0,545 0,1091 0,1636 341,-545 680,-1091 1022,-1636 296,0 592,0 888,0 -382,555 -764,1109 -1146,1664 351,529 701,1059 1052,1589l0 0zm1073 -1114c233,-1 467,0 701,-1 -139,-445 -237,-901 -341,-1355 -114,454 -214,911 -360,1356l0 0zm-12086 -2139c682,0 1363,0 2045,0 -32,197 -63,393 -93,590 -411,1 -820,-2 -1230,1 2,276 0,552 1,829 343,0 684,0 1027,0 0,197 0,393 0,589 -339,0 -677,1 -1016,-1 -2,321 0,641 -1,962 453,0 905,-1 1358,0 0,206 0,413 0,619 -697,0 -1394,1 -2091,0 0,-1196 0,-2393 0,-3589l0 0zm2523 0c292,0 585,0 878,0 255,-1 512,9 760,66 136,31 270,81 384,161 154,102 280,248 350,420 82,195 96,412 76,622 -19,196 -81,392 -200,552 -113,153 -272,268 -447,344 -170,69 -355,91 -537,100 -180,6 -361,2 -542,3 0,441 0,881 0,1321 -241,0 -482,0 -723,0 0,-1196 0,-2393 1,-3589l0 0zm722 585c0,364 0,728 0,1093 144,0 289,2 434,-1 79,-2 160,-6 237,-28 77,-22 137,-83 181,-149 76,-116 93,-261 91,-397 -1,-137 -38,-282 -136,-383 -84,-91 -209,-134 -330,-135 -160,-1 -318,0 -477,0l0 0zm6152 3685c235,-39 484,15 679,153 -35,58 -73,116 -109,174 -109,-65 -227,-119 -353,-133 -95,-10 -196,-2 -277,52 -112,71 -142,245 -52,345 57,64 141,95 221,118 86,26 173,50 257,79 120,44 237,118 302,232 93,168 76,390 -43,541 -95,127 -243,206 -398,230 -249,40 -511,-10 -726,-142 33,-63 65,-126 98,-189 169,107 374,169 575,137 98,-16 195,-68 243,-158 46,-90 46,-209 -16,-292 -48,-64 -123,-103 -197,-129 -151,-52 -314,-76 -449,-167 -89,-58 -160,-149 -181,-254 -27,-134 -3,-282 80,-393 83,-110 211,-181 346,-204l0 0zm-9477 18c82,0 164,0 247,0 0,336 0,671 0,1005 1,115 -4,230 16,344 10,50 23,105 63,140 72,68 175,84 270,83 88,-1 182,-20 248,-83 54,-50 74,-124 83,-194 12,-93 7,-186 9,-278 0,-339 0,-678 0,-1017 81,0 162,0 243,0 0,421 2,842 0,1262 -4,84 -3,174 -46,248 -61,106 -161,187 -276,228 -131,47 -273,51 -409,35 -127,-17 -255,-64 -340,-162 -49,-54 -81,-122 -93,-194 -19,-104 -15,-209 -15,-315 0,-367 0,-734 0,-1102l0 0zm1784 0c95,0 190,0 285,0 109,216 218,433 327,649 119,242 257,478 335,739 3,-2 10,-6 13,-8 -19,-209 -25,-420 -26,-630 -1,-250 -3,-500 -4,-750 79,0 158,0 237,0 0,584 0,1169 0,1753 -88,0 -175,0 -261,0 -177,-354 -353,-708 -527,-1065 -54,-113 -106,-227 -148,-345l-14 -1c22,278 20,556 24,834 2,193 4,385 6,577 -83,0 -165,0 -247,0 0,-584 0,-1169 0,-1753l0 0zm1776 0c83,0 167,0 250,0 0,584 0,1169 0,1753 -83,0 -167,0 -250,0 0,-584 0,-1169 0,-1753l0 0zm643 0c90,0 181,0 271,0 88,279 177,557 267,835 60,191 127,380 162,577l14 -1c59,-236 142,-466 216,-697 78,-238 156,-475 234,-713 85,-2 170,-1 256,-1 -198,587 -397,1172 -595,1758 -80,0 -160,0 -240,0 -195,-586 -390,-1172 -585,-1758l0 0zm1828 1c317,-2 635,-1 953,-1 -11,68 -21,135 -32,202 -225,1 -450,0 -674,0 0,178 0,355 0,533 188,0 376,0 564,0 0,69 0,138 0,207 -187,0 -374,0 -561,0 0,200 0,400 0,600 244,0 488,0 731,0 0,70 0,141 0,211 -327,0 -654,0 -981,0 0,-584 0,-1168 0,-1752l0 0zm1463 0c160,-2 318,-1 478,-1 108,0 219,11 319,56 89,40 160,113 207,197 61,111 69,244 44,367 -30,142 -131,271 -269,323 -58,22 -121,28 -184,28 124,104 210,243 298,377 85,135 170,270 255,405 -99,0 -199,0 -298,0 -91,-172 -192,-338 -296,-502 -48,-72 -102,-139 -160,-203 -39,-42 -92,-67 -147,-72 -4,259 -1,518 -2,777 -81,0 -163,0 -245,0 0,-584 0,-1168 0,-1752l0 0zm245 202c0,203 0,406 0,609 99,-1 199,6 296,-9 70,-11 143,-34 190,-89 70,-80 83,-196 65,-297 -14,-81 -72,-151 -148,-179 -128,-51 -269,-32 -403,-35l0 0zm2976 -203c83,0 167,0 250,0 0,584 0,1169 0,1753 -83,0 -167,0 -250,0 0,-584 0,-1169 0,-1753l0 0zm683 0c393,0 785,0 1178,0 -9,69 -16,136 -26,205 -151,0 -303,0 -454,0 -1,516 0,1032 -1,1548 -80,0 -161,0 -242,0 0,-516 0,-1032 0,-1548 -152,0 -303,0 -455,0 0,-69 0,-136 0,-205l0 0zm1352 0c100,0 200,0 301,0 53,110 106,221 160,331 77,163 164,323 226,493 30,-69 59,-137 92,-204 101,-207 203,-413 304,-619 95,-2 190,0 285,-1l0 2c-182,341 -362,684 -543,1026 -7,13 -17,26 -15,41 -1,228 0,457 -1,684 -84,0 -170,0 -255,0 0,-234 2,-468 -1,-702 -182,-351 -369,-700 -553,-1051z"/>
   <path class="fil1" d="M1197 4508c669,-193 1381,-233 2068,-120 478,77 942,225 1384,418 -73,137 -157,268 -253,389 -107,134 -234,251 -358,368 -182,169 -373,329 -572,477 -293,215 -603,411 -938,553l-2 0c-235,-96 -453,-226 -666,-363 -366,-242 -706,-524 -1018,-832 -178,-171 -322,-374 -438,-591 256,-121 521,-221 793,-299z"/>
  </g>
 </g>
</svg>
